<svg width="20" height="20" viewBox="0 0 20 20" fill="none" xmlns="http://www.w3.org/2000/svg">
<path fill-rule="evenodd" clip-rule="evenodd" d="M0 12.8459C0 12.4673 0.117063 12.1043 0.325437 11.8366C0.533811 11.5689 0.816426 11.4185 1.11111 11.4185H14.4444C15.3285 11.4185 16.1763 10.9674 16.8015 10.1644C17.4266 9.36137 17.7778 8.27224 17.7778 7.13659V1.42732C17.7778 1.04877 17.8948 0.685726 18.1032 0.418052C18.3116 0.150378 18.5942 0 18.8889 0C19.1836 0 19.4662 0.150378 19.6746 0.418052C19.8829 0.685726 20 1.04877 20 1.42732V7.13659C20 9.02934 19.4147 10.8446 18.3728 12.1829C17.3309 13.5213 15.9179 14.2732 14.4444 14.2732H1.11111C0.816426 14.2732 0.533811 14.1228 0.325437 13.8551C0.117063 13.5875 0 13.2244 0 12.8459Z" fill="#ECECEC"/>
<path fill-rule="evenodd" clip-rule="evenodd" d="M0.325562 13.855C0.117261 13.5873 0.000244141 13.2243 0.000244141 12.8459C0.000244141 12.4674 0.117261 12.1044 0.325562 11.8367L4.77001 6.12747C4.97957 5.86747 5.26023 5.72361 5.55156 5.72686C5.84289 5.73011 6.12157 5.88022 6.32758 6.14486C6.53359 6.40949 6.65045 6.76748 6.65298 7.14172C6.65551 7.51596 6.54352 7.8765 6.34112 8.1457L2.68223 12.8459L6.34112 17.546C6.44724 17.6777 6.53189 17.8352 6.59012 18.0093C6.64835 18.1835 6.679 18.3708 6.68029 18.5603C6.68157 18.7498 6.65345 18.9377 6.59759 19.1132C6.54172 19.2886 6.45922 19.4479 6.35489 19.5819C6.25056 19.716 6.12651 19.8219 5.98996 19.8937C5.8534 19.9655 5.70709 20.0016 5.55956 19.9999C5.41203 19.9983 5.26623 19.9589 5.13067 19.8841C4.99511 19.8093 4.8725 19.7006 4.77001 19.5643L0.325562 13.855Z" fill="#ECECEC"/>
</svg>
