<svg width="20" height="20" viewBox="0 0 20 20" fill="none" xmlns="http://www.w3.org/2000/svg">
<path fill-rule="evenodd" clip-rule="evenodd" d="M0 12.8459C0 12.4673 0.117063 12.1043 0.325437 11.8366C0.533811 11.5689 0.816426 11.4185 1.11111 11.4185H14.4444C15.3285 11.4185 16.1763 10.9674 16.8015 10.1644C17.4266 9.36137 17.7778 8.27224 17.7778 7.13659V1.42732C17.7778 1.04877 17.8948 0.685726 18.1032 0.418052C18.3116 0.150378 18.5942 0 18.8889 0C19.1836 0 19.4662 0.150378 19.6746 0.418052C19.8829 0.685726 20 1.04877 20 1.42732V7.13659C20 9.02934 19.4147 10.8446 18.3728 12.1829C17.3309 13.5213 15.9179 14.2732 14.4444 14.2732H1.11111C0.816426 14.2732 0.533811 14.1228 0.325437 13.8551C0.117063 13.5875 0 13.2244 0 12.8459Z" fill="#ECECEC"/>
<path fill-rule="evenodd" clip-rule="evenodd" d="M0.325318 13.855C0.117017 13.5873 0 13.2243 0 12.8459C0 12.4674 0.117017 12.1044 0.325318 11.8367L4.76976 6.12747C4.97932 5.86747 5.25999 5.72361 5.55132 5.72686C5.84265 5.73011 6.12133 5.88022 6.32734 6.14486C6.53335 6.40949 6.6502 6.76748 6.65273 7.14172C6.65527 7.51596 6.54327 7.8765 6.34087 8.1457L2.68199 12.8459L6.34087 17.546C6.447 17.6777 6.53164 17.8352 6.58988 18.0093C6.64811 18.1835 6.67876 18.3708 6.68004 18.5603C6.68132 18.7498 6.65321 18.9377 6.59734 19.1132C6.54147 19.2886 6.45897 19.4479 6.35465 19.5819C6.25032 19.716 6.12626 19.8219 5.98971 19.8937C5.85316 19.9655 5.70685 20.0016 5.55932 19.9999C5.41178 19.9983 5.26598 19.9589 5.13042 19.8841C4.99486 19.8093 4.87226 19.7006 4.76976 19.5643L0.325318 13.855Z" fill="#ECECEC"/>
</svg>
