<svg width="35" height="39" viewBox="0 0 35 39" fill="none" xmlns="http://www.w3.org/2000/svg">
<path fill-rule="evenodd" clip-rule="evenodd" d="M16.3088 8.0782L11.2666 13.4774L9.59965 11.7129L12.6426 8.43584H5.58651C5.12321 8.43584 4.66444 8.53364 4.2364 8.72367C3.80835 8.91369 3.41943 9.19221 3.09182 9.54333C2.76421 9.89445 2.50434 10.3113 2.32704 10.77C2.14974 11.2288 2.05848 11.7205 2.05848 12.217C2.05848 12.7136 2.14974 13.2053 2.32704 13.664C2.50434 14.1228 2.76421 14.5396 3.09182 14.8908C3.41943 15.2419 3.80835 15.5204 4.2364 15.7104C4.66444 15.9004 5.12321 15.9982 5.58651 15.9982H6.89483V18.5191H5.60121C4.0917 18.4422 2.66773 17.7455 1.62479 16.5734C0.581841 15.4013 0 13.8438 0 12.2241C0 10.6045 0.581841 9.04699 1.62479 7.87488C2.66773 6.70277 4.0917 6.00602 5.60121 5.92921H12.6573L9.59818 2.67265L11.2666 0.892334L16.3088 6.29946V8.0782ZM24.4159 38.7044H10.3038L9.12778 37.444V17.2965L10.3038 16.0361H24.4159L25.5919 17.2965V37.444L24.4159 38.7044ZM11.4798 36.1836H23.2399V18.5569H11.4798V36.1836ZM19.7119 3.41629H33.824L35 4.67669V24.8211L33.824 26.0815H27.9439V23.5607H32.648V5.93394H20.8879V13.4759H18.5359V4.67511L19.7119 3.41471V3.41629ZM20.8879 21.0399H13.8318V23.5607H20.8879V21.0399ZM13.8318 26.0815H20.8879V28.6023H13.8318V26.0815ZM20.8879 31.1231H13.8318V33.6439H20.8879V31.1231ZM23.2399 8.43584H30.296V10.9566H23.2399V8.43584ZM30.296 18.5191H27.9439V21.0399H30.296V18.5191ZM25.3891 13.5153V13.4774H30.296V15.9982H27.7058L25.3891 13.5153Z" fill="#ECECEC"/>
</svg>
