<svg width="35" height="35" viewBox="0 0 35 35" fill="none" xmlns="http://www.w3.org/2000/svg">
<path fill-rule="evenodd" clip-rule="evenodd" d="M16.3088 6.65146L11.2666 11.6492L9.59965 10.0158L12.6426 6.9825H5.58651C5.12321 6.9825 4.66444 7.07303 4.2364 7.24892C3.80835 7.42481 3.41943 7.68262 3.09182 8.00763C2.76421 8.33263 2.50434 8.71847 2.32704 9.14311C2.14974 9.56775 2.05848 10.0229 2.05848 10.4825C2.05848 10.9421 2.14974 11.3973 2.32704 11.8219C2.50434 12.2465 2.76421 12.6324 3.09182 12.9574C3.41943 13.2824 3.80835 13.5402 4.2364 13.7161C4.66444 13.892 5.12321 13.9825 5.58651 13.9825H6.89483V16.3158H5.60121C4.0917 16.2447 2.66773 15.5998 1.62479 14.5149C0.581841 13.4299 0 11.9883 0 10.4891C0 8.98986 0.581841 7.5482 1.62479 6.46326C2.66773 5.37832 4.0917 4.73339 5.60121 4.66229H12.6573L9.59818 1.64792L11.2666 0L16.3088 5.005V6.65146ZM24.4159 35H10.3038L9.12778 33.8333V15.1842L10.3038 14.0175H24.4159L25.5919 15.1842V33.8333L24.4159 35ZM11.4798 32.6667H23.2399V16.3508H11.4798V32.6667ZM19.7119 2.33625H33.824L35 3.50292V22.1492L33.824 23.3158H27.9439V20.9825H32.648V4.66667H20.8879V11.6477H18.5359V3.50146L19.7119 2.33479V2.33625ZM20.8879 18.6492H13.8318V20.9825H20.8879V18.6492ZM13.8318 23.3158H20.8879V25.6492H13.8318V23.3158ZM20.8879 27.9825H13.8318V30.3158H20.8879V27.9825ZM23.2399 6.9825H30.296V9.31583H23.2399V6.9825ZM30.296 16.3158H27.9439V18.6492H30.296V16.3158ZM25.3891 11.6842V11.6492H30.296V13.9825H27.7058L25.3891 11.6842Z" fill="#ECECEC"/>
</svg>
