<svg width="26" height="25" viewBox="0 0 26 25" fill="none" xmlns="http://www.w3.org/2000/svg">
<path d="M12.7333 3.04578C12.9143 3.04518 13.0894 3.11022 13.2263 3.22889C13.3631 3.34755 13.4524 3.5118 13.4777 3.69127L13.485 3.79325L13.5104 11.0432L20.7559 11.0187C20.9457 11.0182 21.1287 11.0897 21.2678 11.219C21.4069 11.3483 21.4919 11.5256 21.5055 11.7151C21.519 11.9046 21.4602 12.0923 21.3409 12.2401C21.2217 12.3879 21.0508 12.4849 20.8628 12.5114L20.7609 12.5187L13.5155 12.5432L13.542 19.7932C13.5423 19.9832 13.4706 20.1661 13.3414 20.3052C13.2122 20.4443 13.0351 20.5292 12.8458 20.5426C12.6566 20.5561 12.4693 20.4972 12.3217 20.3778C12.1742 20.2583 12.0774 20.0873 12.0509 19.8993L12.0435 19.7973L12.0171 12.5483L4.77566 12.5728C4.58583 12.5734 4.40286 12.5018 4.26372 12.3725C4.12458 12.2433 4.03963 12.066 4.02606 11.8764C4.01248 11.6869 4.07128 11.4993 4.19057 11.3514C4.30987 11.2036 4.48076 11.1067 4.66873 11.0801L4.7706 11.0728L12.013 11.0483L11.9866 3.79831C11.9859 3.5994 12.0642 3.40837 12.2042 3.26724C12.3442 3.12612 12.5345 3.04645 12.7333 3.04578Z" fill="white"/>
</svg>
