<svg width="21" height="21" viewBox="0 0 21 21" fill="none" xmlns="http://www.w3.org/2000/svg">
<g clip-path="url(#clip0_122_41)">
<path d="M20.305 10.3406C20.305 9.66079 20.2499 8.97734 20.1323 8.30859H10.7V12.1594H16.1014C15.8773 13.4014 15.1571 14.5 14.1025 15.1982V17.6968H17.325C19.2173 15.9551 20.305 13.383 20.305 10.3406Z" fill="#4285F4"/>
<path d="M10.6999 20.1109C13.397 20.1109 15.6714 19.2253 17.3286 17.6968L14.1061 15.1981C13.2096 15.8081 12.0521 16.1535 10.7036 16.1535C8.09474 16.1535 5.88272 14.3934 5.08904 12.0271H1.76367V14.6029C3.46127 17.9797 6.91892 20.1109 10.6999 20.1109V20.1109Z" fill="#34A853"/>
<path d="M5.0854 12.0271C4.66651 10.7852 4.66651 9.44031 5.0854 8.19834V5.62256H1.7637C0.345367 8.44821 0.345367 11.7773 1.7637 14.6029L5.0854 12.0271V12.0271Z" fill="#FBBC04"/>
<path d="M10.6999 4.06816C12.1256 4.04611 13.5035 4.58258 14.536 5.56733L17.3911 2.71229C15.5833 1.01469 13.1838 0.0813858 10.6999 0.110781C6.91892 0.110781 3.46127 2.24196 1.76367 5.62245L5.08537 8.19823C5.87538 5.82822 8.09107 4.06816 10.6999 4.06816V4.06816Z" fill="#EA4335"/>
</g>
<defs>
<clipPath id="clip0_122_41">
<rect width="20" height="20" fill="white" transform="translate(0.5 0.110107)"/>
</clipPath>
</defs>
</svg>
