<svg width="30" height="38" viewBox="0 0 30 38" fill="none" xmlns="http://www.w3.org/2000/svg">
<path d="M9.5 9.5H20.75M9.5 17H20.75M9.5 24.5H17M2 5.75C2 4.75544 2.39509 3.80161 3.09835 3.09835C3.80161 2.39509 4.75544 2 5.75 2H24.5C25.4946 2 26.4484 2.39509 27.1516 3.09835C27.8549 3.80161 28.25 4.75544 28.25 5.75V32C28.25 32.9946 27.8549 33.9484 27.1516 34.6516C26.4484 35.3549 25.4946 35.75 24.5 35.75H5.75C4.75544 35.75 3.80161 35.3549 3.09835 34.6516C2.39509 33.9484 2 32.9946 2 32V5.75Z" stroke="#ECECEC" stroke-width="3" stroke-linecap="round" stroke-linejoin="round"/>
</svg>
