<svg width="35" height="44" viewBox="0 0 35 44" fill="none" xmlns="http://www.w3.org/2000/svg">
<path d="M10.8571 10.8889H24.1429M10.8571 19.7778H24.1429M10.8571 28.6667H19.7143M2 6.44444C2 5.2657 2.46658 4.13524 3.2971 3.30175C4.12762 2.46825 5.25404 2 6.42857 2H28.5714C29.746 2 30.8724 2.46825 31.7029 3.30175C32.5334 4.13524 33 5.2657 33 6.44444V37.5556C33 38.7343 32.5334 39.8648 31.7029 40.6983C30.8724 41.5317 29.746 42 28.5714 42H6.42857C5.25404 42 4.12762 41.5317 3.2971 40.6983C2.46658 39.8648 2 38.7343 2 37.5556V6.44444Z" stroke="#ECECEC" stroke-width="3" stroke-linecap="round" stroke-linejoin="round"/>
</svg>
