<svg width="35" height="38" viewBox="0 0 35 38" fill="none" xmlns="http://www.w3.org/2000/svg">
<g clip-path="url(#clip0_32_548)">
<path d="M8.81708 18.3972C10.0385 16.168 11.9042 14.4342 14.127 13.4627C16.3498 12.4911 18.8066 12.3356 21.1192 13.0201C23.4318 13.7046 25.4722 15.1911 26.9262 17.251C28.3803 19.3109 29.1675 21.8299 29.1667 24.4204C29.1667 24.8382 29.3203 25.239 29.5938 25.5344C29.8673 25.8299 30.2382 25.9959 30.625 25.9959C31.0118 25.9959 31.3827 25.8299 31.6562 25.5344C31.9297 25.239 32.0833 24.8382 32.0833 24.4204C32.0835 21.2516 31.1528 18.1646 29.4252 15.6038C27.6976 13.043 25.2623 11.1406 22.47 10.1706C19.6778 9.20065 16.6725 9.2131 13.8872 10.2062C11.1019 11.1993 8.68017 13.1218 6.97083 15.6968L6.1877 10.8994C6.12059 10.4878 5.9049 10.1219 5.58806 9.88215C5.27122 9.64238 4.87919 9.54841 4.49822 9.6209C4.11725 9.6934 3.77854 9.92643 3.5566 10.2687C3.33466 10.611 3.24768 11.0345 3.31478 11.4461L4.83437 20.7558C4.90199 21.1672 5.11811 21.5327 5.4352 21.772C5.64184 21.9217 5.87787 22.0174 6.12464 22.0516C6.37142 22.0857 6.62217 22.0574 6.85708 21.9689L15.1404 20.3918C15.5214 20.3193 15.8601 20.0863 16.082 19.744C16.304 19.4017 16.391 18.9782 16.3238 18.5666C16.2567 18.155 16.041 17.7891 15.7242 17.5493C15.4074 17.3096 15.0153 17.2156 14.6344 17.2881L8.81708 18.3972Z" fill="#ECECEC"/>
</g>
<defs>
<clipPath id="clip0_32_548">
<rect width="35" height="37.812" fill="white"/>
</clipPath>
</defs>
</svg>
