<svg width="35" height="35" viewBox="0 0 35 35" fill="none" xmlns="http://www.w3.org/2000/svg">
<g clip-path="url(#clip0_32_606)">
<path d="M8.81714 17.0289C10.0386 14.9654 11.9043 13.3606 14.1271 12.4613C16.3499 11.5619 18.8067 11.418 21.1193 12.0516C23.4319 12.6852 25.4722 14.0612 26.9263 15.9679C28.3803 17.8746 29.1675 20.2062 29.1667 22.6041C29.1667 22.9909 29.3204 23.3618 29.5939 23.6353C29.8673 23.9088 30.2383 24.0624 30.6251 24.0624C31.0118 24.0624 31.3828 23.9088 31.6563 23.6353C31.9297 23.3618 32.0834 22.9909 32.0834 22.6041C32.0836 19.671 31.1529 16.8135 29.4253 14.4432C27.6977 12.0728 25.2624 10.3119 22.4701 9.41407C19.6778 8.51623 16.6726 8.52775 13.8873 9.447C11.1019 10.3662 8.68023 12.1458 6.97089 14.5293L6.18776 10.0887C6.12066 9.70769 5.90496 9.36898 5.58812 9.14704C5.27128 8.92511 4.87925 8.83812 4.49828 8.90523C4.11731 8.97233 3.7786 9.18803 3.55666 9.50487C3.33472 9.82171 3.24774 10.2137 3.31484 10.5947L4.83443 19.212C4.90205 19.5928 5.11817 19.9312 5.43526 20.1526C5.6419 20.2912 5.87793 20.3798 6.1247 20.4114C6.37148 20.4431 6.62223 20.4169 6.85714 20.3349L15.1405 18.8751C15.5214 18.808 15.8602 18.5923 16.0821 18.2755C16.304 17.9586 16.391 17.5666 16.3239 17.1856C16.2568 16.8047 16.0411 16.466 15.7243 16.244C15.4074 16.0221 15.0154 15.9351 14.6344 16.0022L8.81714 17.0289Z" fill="#ECECEC"/>
</g>
<defs>
<clipPath id="clip0_32_606">
<rect width="35" height="35" fill="white"/>
</clipPath>
</defs>
</svg>
