<svg width="31" height="30" viewBox="0 0 31 30" fill="none" xmlns="http://www.w3.org/2000/svg">
<path d="M0.249512 4.58333C0.249512 3.36776 0.732397 2.20197 1.59194 1.34243C2.45148 0.482886 3.61727 1.66517e-07 4.83284 1.66517e-07H21.4395C22.1511 -0.00017627 22.8558 0.139859 23.5132 0.412106C24.1707 0.684352 24.768 1.08347 25.2712 1.58667L28.6628 4.97833C29.6795 5.995 30.2495 7.37333 30.2495 8.81V25.4167C30.2495 26.6322 29.7666 27.798 28.9071 28.6576C28.0475 29.5171 26.8818 30 25.6662 30H4.83284C3.61727 30 2.45148 29.5171 1.59194 28.6576C0.732397 27.798 0.249512 26.6322 0.249512 25.4167V4.58333ZM4.83284 2.5C3.68284 2.5 2.74951 3.43333 2.74951 4.58333V25.4167C2.74951 26.5667 3.68284 27.5 4.83284 27.5H5.24951V18.75C5.24951 17.7554 5.6446 16.8016 6.34786 16.0983C7.05112 15.3951 8.00495 15 8.99951 15H21.4995C22.4941 15 23.4479 15.3951 24.1512 16.0983C24.8544 16.8016 25.2495 17.7554 25.2495 18.75V27.5H25.6662C26.8162 27.5 27.7495 26.5667 27.7495 25.4167V8.81C27.7495 8.035 27.4428 7.29333 26.8945 6.74667L23.5028 3.355C23.0723 2.92369 22.5174 2.6381 21.9162 2.53833V7.08333C21.9162 7.57579 21.8192 8.06342 21.6307 8.5184C21.4423 8.97337 21.166 9.38676 20.8178 9.73498C20.4696 10.0832 20.0562 10.3594 19.6012 10.5479C19.1463 10.7363 18.6586 10.8333 18.1662 10.8333H10.6662C9.67162 10.8333 8.71779 10.4382 8.01453 9.73498C7.31127 9.03172 6.91618 8.07789 6.91618 7.08333V2.5H4.83284ZM22.7495 27.5V18.75C22.7495 18.4185 22.6178 18.1005 22.3834 17.8661C22.149 17.6317 21.831 17.5 21.4995 17.5H8.99951C8.66799 17.5 8.35005 17.6317 8.11563 17.8661C7.88121 18.1005 7.74951 18.4185 7.74951 18.75V27.5H22.7495ZM9.41618 2.5V7.08333C9.41618 7.77333 9.97618 8.33333 10.6662 8.33333H18.1662C18.4977 8.33333 18.8156 8.20164 19.0501 7.96722C19.2845 7.7328 19.4162 7.41485 19.4162 7.08333V2.5H9.41618Z" fill="black"/>
</svg>
