<svg width="41" height="40" viewBox="0 0 41 40" fill="none" xmlns="http://www.w3.org/2000/svg">
<path fill-rule="evenodd" clip-rule="evenodd" d="M20.2495 4C17.451 3.99948 14.7014 4.73297 12.275 6.12725C9.84854 7.52153 7.83026 9.52783 6.42156 11.9459C5.01286 14.364 4.26301 17.1092 4.24686 19.9077C4.23071 22.7061 4.94883 25.4598 6.32953 27.894C7.26275 26.6811 8.46239 25.6991 9.83569 25.0239C11.209 24.3487 12.7192 23.9984 14.2495 24H26.2495C27.7798 23.9984 29.29 24.3487 30.6633 25.0239C32.0366 25.6991 33.2363 26.6811 34.1695 27.894C35.5502 25.4598 36.2683 22.7061 36.2522 19.9077C36.236 17.1092 35.4862 14.364 34.0775 11.9459C32.6688 9.52783 30.6505 7.52153 28.2241 6.12725C25.7977 4.73297 23.048 3.99948 20.2495 4ZM36.1355 32.152C38.8095 28.6659 40.2559 24.3935 40.2495 20C40.2495 8.95399 31.2955 0 20.2495 0C9.20352 0 0.249534 8.95399 0.249534 20C0.242931 24.3935 1.68934 28.666 4.36353 32.152L4.35353 32.188L5.06353 33.014C6.9393 35.207 9.26829 36.9672 11.89 38.1732C14.5117 39.3793 17.3637 40.0025 20.2495 40C24.3042 40.0074 28.2643 38.7758 31.5995 36.47C33.0214 35.4876 34.3106 34.326 35.4355 33.014L36.1455 32.188L36.1355 32.152ZM20.2495 7.99999C18.6582 7.99999 17.1321 8.63213 16.0069 9.75735C14.8817 10.8826 14.2495 12.4087 14.2495 14C14.2495 15.5913 14.8817 17.1174 16.0069 18.2426C17.1321 19.3678 18.6582 20 20.2495 20C21.8408 20 23.3669 19.3678 24.4921 18.2426C25.6174 17.1174 26.2495 15.5913 26.2495 14C26.2495 12.4087 25.6174 10.8826 24.4921 9.75735C23.3669 8.63213 21.8408 7.99999 20.2495 7.99999Z" fill="black"/>
</svg>
