<svg width="31" height="30" viewBox="0 0 31 30" fill="none" xmlns="http://www.w3.org/2000/svg">
<path d="M0.259277 4.58341C0.259277 3.36783 0.742163 2.20204 1.60171 1.34249C2.46125 0.482949 3.62704 6.12017e-05 4.84261 6.12017e-05H21.4493C22.1609 -0.000115236 22.8655 0.139921 23.523 0.412169C24.1804 0.684416 24.7778 1.08354 25.281 1.58673L28.6726 4.97842C29.6893 5.99509 30.2593 7.37343 30.2593 8.8101V25.4168C30.2593 26.6324 29.7764 27.7982 28.9169 28.6578C28.0573 29.5173 26.8915 30.0002 25.676 30.0002H4.84261C3.62704 30.0002 2.46125 29.5173 1.60171 28.6578C0.742163 27.7982 0.259277 26.6324 0.259277 25.4168V4.58341ZM4.84261 2.50007C3.69261 2.50007 2.75928 3.43341 2.75928 4.58341V25.4168C2.75928 26.5668 3.69261 27.5002 4.84261 27.5002H5.25928V18.7501C5.25928 17.7556 5.65437 16.8017 6.35763 16.0985C7.06089 15.3952 8.01472 15.0001 9.00928 15.0001H21.5093C22.5038 15.0001 23.4577 15.3952 24.1609 16.0985C24.8642 16.8017 25.2593 17.7556 25.2593 18.7501V27.5002H25.676C26.826 27.5002 27.7593 26.5668 27.7593 25.4168V8.8101C27.7593 8.0351 27.4526 7.29343 26.9043 6.74676L23.5126 3.35508C23.082 2.92377 22.5272 2.63817 21.926 2.53841V7.08342C21.926 7.57588 21.829 8.06352 21.6405 8.51849C21.452 8.97347 21.1758 9.38686 20.8276 9.73509C20.4794 10.0833 20.066 10.3595 19.611 10.548C19.156 10.7364 18.6684 10.8334 18.176 10.8334H10.6759C9.68139 10.8334 8.72756 10.4384 8.0243 9.73509C7.32104 9.03182 6.92595 8.07799 6.92595 7.08342V2.50007H4.84261ZM22.7593 27.5002V18.7501C22.7593 18.4186 22.6276 18.1007 22.3932 17.8663C22.1588 17.6318 21.8408 17.5001 21.5093 17.5001H9.00928C8.67776 17.5001 8.35982 17.6318 8.1254 17.8663C7.89098 18.1007 7.75928 18.4186 7.75928 18.7501V27.5002H22.7593ZM9.42595 2.50007V7.08342C9.42595 7.77343 9.98595 8.33343 10.6759 8.33343H18.176C18.5075 8.33343 18.8254 8.20173 19.0598 7.96731C19.2943 7.73289 19.426 7.41495 19.426 7.08342V2.50007H9.42595Z" fill="black"/>
</svg>
