<svg width="26" height="26" viewBox="0 0 26 26" fill="none" xmlns="http://www.w3.org/2000/svg">
<path d="M9.44279 26L8.92537 21.84C8.64511 21.7317 8.3808 21.6017 8.13244 21.45C7.88408 21.2983 7.64176 21.1358 7.40547 20.9625L3.55721 22.5875L0 16.4125L3.33085 13.8775C3.30929 13.7258 3.29851 13.5794 3.29851 13.4381V12.5619C3.29851 12.4206 3.30929 12.2742 3.33085 12.1225L0 9.5875L3.55721 3.4125L7.40547 5.0375C7.64262 4.86417 7.89055 4.70167 8.14925 4.55C8.40796 4.39833 8.66667 4.26833 8.92537 4.16L9.44279 0H16.5572L17.0746 4.16C17.3549 4.26833 17.6192 4.39833 17.8676 4.55C18.1159 4.70167 18.3582 4.86417 18.5945 5.0375L22.4428 3.4125L26 9.5875L22.6692 12.1225C22.6907 12.2742 22.7015 12.4206 22.7015 12.5619V13.4381C22.7015 13.5794 22.6799 13.7258 22.6368 13.8775L25.9677 16.4125L22.4104 22.5875L18.5945 20.9625C18.3574 21.1358 18.1095 21.2983 17.8507 21.45C17.592 21.6017 17.3333 21.7317 17.0746 21.84L16.5572 26H9.44279ZM13.0647 17.55C14.3151 17.55 15.3823 17.1058 16.2662 16.2175C17.1501 15.3292 17.592 14.2567 17.592 13C17.592 11.7433 17.1501 10.6708 16.2662 9.7825C15.3823 8.89417 14.3151 8.45 13.0647 8.45C11.7927 8.45 10.7199 8.89417 9.84637 9.7825C8.9728 10.6708 8.53645 11.7433 8.53731 13C8.53731 14.2567 8.97367 15.3292 9.84637 16.2175C10.7191 17.1058 11.7918 17.55 13.0647 17.55ZM13.0647 14.95C12.5257 14.95 12.0674 14.7602 11.6897 14.3806C11.3119 14.001 11.1235 13.5408 11.1244 13C11.1244 12.4583 11.3132 11.9977 11.6909 11.6181C12.0687 11.2385 12.5266 11.0491 13.0647 11.05C13.6037 11.05 14.062 11.2398 14.4397 11.6194C14.8174 11.999 15.0058 12.4592 15.005 13C15.005 13.5417 14.8161 14.0023 14.4384 14.3819C14.0607 14.7615 13.6028 14.9509 13.0647 14.95ZM11.7065 23.4H14.2612L14.7139 19.955C15.3823 19.7817 16.0023 19.5269 16.574 19.1906C17.1458 18.8543 17.6684 18.4483 18.1418 17.9725L21.3433 19.305L22.6045 17.095L19.8234 14.9825C19.9312 14.6792 20.0066 14.3598 20.0498 14.0244C20.0929 13.689 20.1144 13.3475 20.1144 13C20.1144 12.6533 20.0929 12.3123 20.0498 11.9769C20.0066 11.6415 19.9312 11.3217 19.8234 11.0175L22.6045 8.905L21.3433 6.695L18.1418 8.06C17.6675 7.56167 17.1449 7.1448 16.574 6.8094C16.0032 6.474 15.3831 6.2192 14.7139 6.045L14.2935 2.6H11.7388L11.2861 6.045C10.6177 6.21833 9.99814 6.47313 9.42726 6.8094C8.85639 7.14567 8.33337 7.5517 7.85821 8.0275L4.65672 6.695L3.39552 8.905L6.17662 10.985C6.06882 11.31 5.99337 11.635 5.95025 11.96C5.90713 12.285 5.88557 12.6317 5.88557 13C5.88557 13.3467 5.90713 13.6825 5.95025 14.0075C5.99337 14.3325 6.06882 14.6575 6.17662 14.9825L3.39552 17.095L4.65672 19.305L7.85821 17.94C8.3325 18.4383 8.85552 18.8556 9.42726 19.1919C9.99901 19.5282 10.6186 19.7825 11.2861 19.955L11.7065 23.4Z" fill="white"/>
</svg>
