<svg width="26" height="27" viewBox="0 0 26 27" fill="none" xmlns="http://www.w3.org/2000/svg">
<path d="M12.8063 27L24.9738 15.7571C25.1616 15.5544 25.2598 15.2936 25.2487 15.0269C25.2375 14.7602 25.1179 14.5072 24.9136 14.3185C24.7094 14.1298 24.4356 14.0192 24.147 14.0089C23.8584 13.9986 23.5762 14.0894 23.3568 14.2629L13.9531 22.9415V1.05965C13.9531 0.778617 13.8323 0.50909 13.6172 0.310366C13.4022 0.111642 13.1105 0 12.8063 0C12.5022 0 12.2105 0.111642 11.9954 0.310366C11.7804 0.50909 11.6595 0.778617 11.6595 1.05965V22.9415L2.26734 14.2629C2.16453 14.152 2.03802 14.0619 1.89574 13.9983C1.75347 13.9347 1.5985 13.899 1.44056 13.8933C1.28263 13.8877 1.12514 13.9123 0.977976 13.9656C0.830814 14.0188 0.697159 14.0997 0.585399 14.2029C0.473638 14.3062 0.386187 14.4297 0.328533 14.5657C0.270878 14.7017 0.244266 14.8472 0.250366 14.9931C0.256467 15.139 0.295148 15.2822 0.363982 15.4137C0.432816 15.5452 0.530317 15.6621 0.650365 15.7571L12.8063 27Z" fill="black"/>
</svg>
