<svg width="41" height="40" viewBox="0 0 41 40" fill="none" xmlns="http://www.w3.org/2000/svg">
<path fill-rule="evenodd" clip-rule="evenodd" d="M20.2593 4.00014C17.4608 3.99962 14.7111 4.73311 12.2847 6.1274C9.85831 7.52168 7.84003 9.52799 6.43133 11.9461C5.02263 14.3641 4.27278 17.1094 4.25663 19.9079C4.24048 22.7063 4.95859 25.46 6.33929 27.8942C7.27251 26.6814 8.47215 25.6994 9.84546 25.0242C11.2188 24.349 12.729 23.9986 14.2593 24.0002H26.2593C27.7896 23.9986 29.2998 24.349 30.6731 25.0242C32.0464 25.6994 33.246 26.6814 34.1793 27.8942C35.56 25.46 36.2781 22.7063 36.2619 19.9079C36.2458 17.1094 35.4959 14.3641 34.0872 11.9461C32.6785 9.52799 30.6603 7.52168 28.2338 6.1274C25.8074 4.73311 23.0578 3.99962 20.2593 4.00014ZM36.1453 32.1522C38.8193 28.6662 40.2657 24.3937 40.2593 20.0002C40.2593 8.95415 31.3053 0.00012207 20.2593 0.00012207C9.21329 0.00012207 0.2593 8.95415 0.2593 20.0002C0.252697 24.3938 1.69911 28.6662 4.3733 32.1522L4.3633 32.1882L5.0733 33.0142C6.94906 35.2073 9.27806 36.9675 11.8998 38.1735C14.5214 39.3796 17.3735 40.0028 20.2593 40.0003C24.3139 40.0077 28.2741 38.7761 31.6093 36.4702C33.0311 35.4879 34.3204 34.3263 35.4453 33.0142L36.1553 32.1882L36.1453 32.1522ZM20.2593 8.00015C18.668 8.00015 17.1419 8.63229 16.0166 9.75751C14.8914 10.8827 14.2593 12.4089 14.2593 14.0002C14.2593 15.5915 14.8914 17.1176 16.0166 18.2428C17.1419 19.368 18.668 20.0002 20.2593 20.0002C21.8506 20.0002 23.3767 19.368 24.5019 18.2428C25.6271 17.1176 26.2593 15.5915 26.2593 14.0002C26.2593 12.4089 25.6271 10.8827 24.5019 9.75751C23.3767 8.63229 21.8506 8.00015 20.2593 8.00015Z" fill="black"/>
</svg>
