<svg width="31" height="30" viewBox="0 0 31 30" fill="none" xmlns="http://www.w3.org/2000/svg">
<path d="M25.2495 30C23.8606 30 22.6801 29.5625 21.7078 28.6875C20.7356 27.8125 20.2495 26.75 20.2495 25.5C20.2495 25.325 20.2634 25.1435 20.2912 24.9555C20.319 24.7675 20.3606 24.599 20.4162 24.45L8.66618 18.3C8.19396 18.675 7.66618 18.969 7.08284 19.182C6.49951 19.395 5.8884 19.501 5.24951 19.5C3.86062 19.5 2.68007 19.0625 1.70785 18.1875C0.735623 17.3125 0.249512 16.25 0.249512 15C0.249512 13.75 0.735623 12.6875 1.70785 11.8125C2.68007 10.9375 3.86062 10.5 5.24951 10.5C5.8884 10.5 6.49951 10.6065 7.08284 10.8195C7.66618 11.0325 8.19396 11.326 8.66618 11.7L20.4162 5.55C20.3606 5.4 20.319 5.2315 20.2912 5.0445C20.2634 4.8575 20.2495 4.676 20.2495 4.5C20.2495 3.25 20.7356 2.1875 21.7078 1.3125C22.6801 0.4375 23.8606 0 25.2495 0C26.6384 0 27.819 0.4375 28.7912 1.3125C29.7634 2.1875 30.2495 3.25 30.2495 4.5C30.2495 5.75 29.7634 6.8125 28.7912 7.6875C27.819 8.5625 26.6384 9 25.2495 9C24.6106 9 23.9995 8.894 23.4162 8.682C22.8328 8.47 22.3051 8.176 21.8328 7.8L10.0828 13.95C10.1384 14.1 10.1801 14.269 10.2078 14.457C10.2356 14.645 10.2495 14.826 10.2495 15C10.2495 15.175 10.2356 15.3565 10.2078 15.5445C10.1801 15.7325 10.1384 15.901 10.0828 16.05L21.8328 22.2C22.3051 21.825 22.8328 21.5315 23.4162 21.3195C23.9995 21.1075 24.6106 21.001 25.2495 21C26.6384 21 27.819 21.4375 28.7912 22.3125C29.7634 23.1875 30.2495 24.25 30.2495 25.5C30.2495 26.75 29.7634 27.8125 28.7912 28.6875C27.819 29.5625 26.6384 30 25.2495 30Z" fill="black"/>
</svg>
