<svg width="18" height="18" viewBox="0 0 18 18" fill="none" xmlns="http://www.w3.org/2000/svg">
<path d="M8.72397 0.041266C8.90502 0.0406618 9.08016 0.105705 9.21701 0.224368C9.35385 0.34303 9.44315 0.507284 9.46838 0.686754L9.47571 0.78873L9.50117 8.03868L16.7466 8.0142C16.9364 8.01361 17.1194 8.08518 17.2585 8.21444C17.3977 8.3437 17.4826 8.52101 17.4962 8.71055C17.5098 8.90008 17.451 9.08771 17.3317 9.23553C17.2124 9.38334 17.0415 9.48031 16.8535 9.50684L16.7516 9.51419L9.50623 9.53868L9.53268 16.7886C9.53301 16.9786 9.46133 17.1616 9.33213 17.3007C9.20293 17.4397 9.02581 17.5246 8.83655 17.5381C8.64729 17.5515 8.45997 17.4926 8.31242 17.3732C8.16487 17.2538 8.06807 17.0827 8.04158 16.8947L8.03424 16.7927L8.00779 9.54374L0.76638 9.56821C0.576555 9.5688 0.393585 9.49723 0.254442 9.36797C0.115299 9.23871 0.0303569 9.0614 0.0167791 8.87186C0.00320121 8.68233 0.0620002 8.4947 0.181295 8.34689C0.300589 8.19908 0.471485 8.1021 0.659451 8.07557L0.761321 8.06822L8.00373 8.04375L7.97728 0.793794C7.97661 0.594883 8.0549 0.403851 8.19494 0.262725C8.33497 0.121599 8.52527 0.0419376 8.72397 0.041266Z" fill="white"/>
</svg>
