<svg width="5" height="16" viewBox="0 0 5 16" fill="none" xmlns="http://www.w3.org/2000/svg">
<path d="M0.249512 8C0.249512 8.53043 0.460226 9.03914 0.835299 9.41421C1.21037 9.78929 1.71908 10 2.24951 10C2.77994 10 3.28865 9.78929 3.66372 9.41421C4.0388 9.03914 4.24951 8.53043 4.24951 8C4.24951 7.46957 4.0388 6.96086 3.66372 6.58579C3.28865 6.21071 2.77994 6 2.24951 6C1.71908 6 1.21037 6.21071 0.835299 6.58579C0.460226 6.96086 0.249512 7.46957 0.249512 8ZM0.249512 2C0.249512 2.53043 0.460226 3.03914 0.835299 3.41421C1.21037 3.78929 1.71908 4 2.24951 4C2.77994 4 3.28865 3.78929 3.66372 3.41421C4.0388 3.03914 4.24951 2.53043 4.24951 2C4.24951 1.46957 4.0388 0.960859 3.66372 0.585786C3.28865 0.210714 2.77994 0 2.24951 0C1.71908 0 1.21037 0.210714 0.835299 0.585786C0.460226 0.960859 0.249512 1.46957 0.249512 2ZM0.249512 14C0.249512 14.5304 0.460226 15.0391 0.835299 15.4142C1.21037 15.7893 1.71908 16 2.24951 16C2.77994 16 3.28865 15.7893 3.66372 15.4142C4.0388 15.0391 4.24951 14.5304 4.24951 14C4.24951 13.4696 4.0388 12.9609 3.66372 12.5858C3.28865 12.2107 2.77994 12 2.24951 12C1.71908 12 1.21037 12.2107 0.835299 12.5858C0.460226 12.9609 0.249512 13.4696 0.249512 14Z" fill="black"/>
</svg>
