<svg width="26" height="26" viewBox="0 0 26 26" fill="none" xmlns="http://www.w3.org/2000/svg">
<path fill-rule="evenodd" clip-rule="evenodd" d="M6.35645 0C6.00621 0.000126433 5.66142 0.0958707 5.35269 0.278731C5.04396 0.461592 4.78085 0.725911 4.58671 1.04822L0.224365 8.28091C-0.0418249 8.72439 -0.0734273 9.2915 0.141712 9.76723C2.52902 15.046 5.84663 19.744 9.89957 23.5849L12.0267 25.602C12.2976 25.8588 12.6427 26 12.9996 26C13.3565 26 13.7017 25.8588 13.9726 25.602L16.0997 23.5862C20.1532 19.7451 23.4713 15.0466 25.8588 9.76723C26.0739 9.2915 26.0411 8.72439 25.7749 8.28091L21.4101 1.04822C21.216 0.726349 20.953 0.462411 20.6445 0.2798C20.336 0.0971887 19.9915 0.00154385 19.6416 0.00134377L6.35645 0ZM6.10363 2.16497C6.13142 2.11903 6.16904 2.08139 6.21314 2.05537C6.25724 2.02935 6.30646 2.01576 6.35645 2.0158H9.20067L6.87303 8.19222C6.81971 8.33353 6.779 8.48026 6.75148 8.63032C5.89547 8.55967 5.04048 8.47454 4.18682 8.37499L2.47908 8.17744L6.10363 2.16497ZM2.40007 10.1946C4.58113 14.6187 7.46012 18.5759 10.9011 21.8795L7.10275 10.6797C6.06643 10.601 5.03149 10.5015 3.99842 10.3814L2.40007 10.1946ZM9.09249 10.8047L12.999 22.327L16.9068 10.8047C14.303 10.9356 11.6951 10.9356 9.09127 10.8047H9.09249ZM18.8977 10.6797L15.0994 21.8795C18.5404 18.5759 21.4194 14.6187 23.6004 10.1946L22.0021 10.3814C20.9689 10.501 19.9345 10.6004 18.8977 10.6797ZM23.5202 8.17744L21.8112 8.37633C20.9576 8.47589 20.1026 8.56101 19.2466 8.63166C19.2196 8.48119 19.1793 8.334 19.1263 8.19222L16.7974 2.0158H19.6416C19.6916 2.01576 19.7408 2.02935 19.7849 2.05537C19.829 2.08139 19.8666 2.11903 19.8944 2.16497L23.5202 8.17744ZM17.3662 8.76202C14.4576 8.92866 11.5441 8.92866 8.63425 8.76202L11.1758 2.0158H14.8223L17.365 8.76202H17.3662Z" fill="#ECECEC"/>
</svg>
