<svg width="31" height="30" viewBox="0 0 31 30" fill="none" xmlns="http://www.w3.org/2000/svg">
<path d="M25.2593 30.0003C23.8704 30.0003 22.6898 29.5627 21.7176 28.6877C20.7454 27.8127 20.2593 26.7502 20.2593 25.5002C20.2593 25.3252 20.2732 25.1437 20.301 24.9557C20.3287 24.7677 20.3704 24.5992 20.426 24.4502L8.67595 18.3002C8.20373 18.6752 7.67595 18.9692 7.09261 19.1822C6.50928 19.3952 5.89817 19.5012 5.25928 19.5002C3.87039 19.5002 2.68983 19.0627 1.71761 18.1877C0.745389 17.3127 0.259277 16.2502 0.259277 15.0002C0.259277 13.7502 0.745389 12.6877 1.71761 11.8127C2.68983 10.9377 3.87039 10.5002 5.25928 10.5002C5.89817 10.5002 6.50928 10.6067 7.09261 10.8197C7.67595 11.0327 8.20373 11.3262 8.67595 11.7002L20.426 5.55015C20.3704 5.40014 20.3287 5.23164 20.301 5.04464C20.2732 4.85764 20.2593 4.67614 20.2593 4.50014C20.2593 3.25014 20.7454 2.18763 21.7176 1.31263C22.6898 0.437624 23.8704 0.00012207 25.2593 0.00012207C26.6482 0.00012207 27.8287 0.437624 28.801 1.31263C29.7732 2.18763 30.2593 3.25014 30.2593 4.50014C30.2593 5.75015 29.7732 6.81265 28.801 7.68766C27.8287 8.56266 26.6482 9.00016 25.2593 9.00016C24.6204 9.00016 24.0093 8.89416 23.426 8.68216C22.8426 8.47016 22.3148 8.17616 21.8426 7.80016L10.0926 13.9502C10.1482 14.1002 10.1898 14.2692 10.2176 14.4572C10.2454 14.6452 10.2593 14.8262 10.2593 15.0002C10.2593 15.1752 10.2454 15.3567 10.2176 15.5447C10.1898 15.7327 10.1482 15.9012 10.0926 16.0502L21.8426 22.2002C22.3148 21.8252 22.8426 21.5317 23.426 21.3197C24.0093 21.1077 24.6204 21.0012 25.2593 21.0002C26.6482 21.0002 27.8287 21.4377 28.801 22.3127C29.7732 23.1877 30.2593 24.2502 30.2593 25.5002C30.2593 26.7502 29.7732 27.8127 28.801 28.6877C27.8287 29.5627 26.6482 30.0003 25.2593 30.0003Z" fill="black"/>
</svg>
