<svg width="32" height="35" viewBox="0 0 32 35" fill="none" xmlns="http://www.w3.org/2000/svg">
<g filter="url(#filter0_d_32_354)">
<path d="M25.5504 8.69961L18.9879 2.13711C18.9443 2.09359 18.8926 2.05909 18.8357 2.03556C18.7788 2.01204 18.7178 1.99995 18.6562 2H7.40625C7.03329 2 6.6756 2.14816 6.41188 2.41188C6.14816 2.6756 6 3.03329 6 3.40625V24.0312C6 24.4042 6.14816 24.7619 6.41188 25.0256C6.6756 25.2893 7.03329 25.4375 7.40625 25.4375H24.2812C24.6542 25.4375 25.0119 25.2893 25.2756 25.0256C25.5393 24.7619 25.6875 24.4042 25.6875 24.0312V9.03125C25.6875 8.96967 25.6755 8.90869 25.6519 8.85179C25.6284 8.79488 25.5939 8.74317 25.5504 8.69961ZM19.125 3.59961L24.0867 8.5625H19.125V3.59961ZM24.2812 24.5H7.40625C7.28193 24.5 7.1627 24.4506 7.07479 24.3627C6.98689 24.2748 6.9375 24.1556 6.9375 24.0312V3.40625C6.9375 3.28193 6.98689 3.1627 7.07479 3.07479C7.1627 2.98689 7.28193 2.9375 7.40625 2.9375H18.1875V9.03125C18.1875 9.15557 18.2369 9.2748 18.3248 9.36271C18.4127 9.45061 18.5319 9.5 18.6562 9.5H24.75V24.0312C24.75 24.1556 24.7006 24.2748 24.6127 24.3627C24.5248 24.4506 24.4056 24.5 24.2812 24.5Z" fill="black"/>
<path d="M25.5504 8.69961L18.9879 2.13711C18.9443 2.09359 18.8926 2.05909 18.8357 2.03556C18.7788 2.01204 18.7178 1.99995 18.6562 2H7.40625C7.03329 2 6.6756 2.14816 6.41188 2.41188C6.14816 2.6756 6 3.03329 6 3.40625V24.0312C6 24.4042 6.14816 24.7619 6.41188 25.0256C6.6756 25.2893 7.03329 25.4375 7.40625 25.4375H24.2812C24.6542 25.4375 25.0119 25.2893 25.2756 25.0256C25.5393 24.7619 25.6875 24.4042 25.6875 24.0312V9.03125C25.6875 8.96967 25.6755 8.90869 25.6519 8.85179C25.6284 8.79488 25.5939 8.74317 25.5504 8.69961ZM19.125 3.59961L24.0867 8.5625H19.125V3.59961ZM24.2812 24.5H7.40625C7.28193 24.5 7.1627 24.4506 7.07479 24.3627C6.98689 24.2748 6.9375 24.1556 6.9375 24.0312V3.40625C6.9375 3.28193 6.98689 3.1627 7.07479 3.07479C7.1627 2.98689 7.28193 2.9375 7.40625 2.9375H18.1875V9.03125C18.1875 9.15557 18.2369 9.2748 18.3248 9.36271C18.4127 9.45061 18.5319 9.5 18.6562 9.5H24.75V24.0312C24.75 24.1556 24.7006 24.2748 24.6127 24.3627C24.5248 24.4506 24.4056 24.5 24.2812 24.5Z" stroke="#ECECEC" stroke-width="2.5"/>
</g>
<defs>
<filter id="filter0_d_32_354" x="0.75" y="0.581299" width="30.354" height="34.1062" filterUnits="userSpaceOnUse" color-interpolation-filters="sRGB">
<feFlood flood-opacity="0" result="BackgroundImageFix"/>
<feColorMatrix in="SourceAlpha" type="matrix" values="0 0 0 0 0 0 0 0 0 0 0 0 0 0 0 0 0 0 127 0" result="hardAlpha"/>
<feOffset dy="4"/>
<feGaussianBlur stdDeviation="2"/>
<feComposite in2="hardAlpha" operator="out"/>
<feColorMatrix type="matrix" values="0 0 0 0 0 0 0 0 0 0 0 0 0 0 0 0 0 0 0.25 0"/>
<feBlend mode="normal" in2="BackgroundImageFix" result="effect1_dropShadow_32_354"/>
<feBlend mode="normal" in="SourceGraphic" in2="effect1_dropShadow_32_354" result="shape"/>
</filter>
</defs>
</svg>
