<svg width="5" height="16" viewBox="0 0 5 16" fill="none" xmlns="http://www.w3.org/2000/svg">
<path d="M0.258789 8.00016C0.258789 8.53059 0.469503 9.0393 0.844576 9.41438C1.21965 9.78945 1.72836 10.0002 2.25879 10.0002C2.78922 10.0002 3.29793 9.78945 3.673 9.41438C4.04808 9.0393 4.25879 8.53059 4.25879 8.00016C4.25879 7.46972 4.04808 6.96101 3.673 6.58594C3.29793 6.21086 2.78922 6.00015 2.25879 6.00015C1.72836 6.00015 1.21965 6.21086 0.844576 6.58594C0.469503 6.96101 0.258789 7.46972 0.258789 8.00016ZM0.258789 2.00013C0.258789 2.53057 0.469503 3.03928 0.844576 3.41435C1.21965 3.78942 1.72836 4.00014 2.25879 4.00014C2.78922 4.00014 3.29793 3.78942 3.673 3.41435C4.04808 3.03928 4.25879 2.53057 4.25879 2.00013C4.25879 1.4697 4.04808 0.960985 3.673 0.585911C3.29793 0.210837 2.78922 0.00012207 2.25879 0.00012207C1.72836 0.00012207 1.21965 0.210837 0.844576 0.585911C0.469503 0.960985 0.258789 1.4697 0.258789 2.00013ZM0.258789 14.0002C0.258789 14.5306 0.469503 15.0393 0.844576 15.4144C1.21965 15.7895 1.72836 16.0002 2.25879 16.0002C2.78922 16.0002 3.29793 15.7895 3.673 15.4144C4.04808 15.0393 4.25879 14.5306 4.25879 14.0002C4.25879 13.4697 4.04808 12.961 3.673 12.586C3.29793 12.2109 2.78922 12.0002 2.25879 12.0002C1.72836 12.0002 1.21965 12.2109 0.844576 12.586C0.469503 12.961 0.258789 13.4697 0.258789 14.0002Z" fill="black"/>
</svg>
