<svg width="26" height="27" viewBox="0 0 26 27" fill="none" xmlns="http://www.w3.org/2000/svg">
<path d="M12.8156 27.0002L24.983 15.7572C25.1709 15.5545 25.2691 15.2937 25.2579 15.027C25.2468 14.7603 25.1271 14.5074 24.9229 14.3186C24.7187 14.1299 24.4449 14.0194 24.1563 14.0091C23.8677 13.9988 23.5855 14.0895 23.3661 14.2631L13.9624 22.9417V1.05972C13.9624 0.778681 13.8416 0.509153 13.6265 0.310428C13.4114 0.111704 13.1198 6.10352e-05 12.8156 6.10352e-05C12.5115 6.10352e-05 12.2198 0.111704 12.0047 0.310428C11.7896 0.509153 11.6688 0.778681 11.6688 1.05972V22.9417L2.27662 14.2631C2.17381 14.1521 2.0473 14.0621 1.90502 13.9984C1.76275 13.9348 1.60778 13.8991 1.44984 13.8935C1.29191 13.8878 1.13442 13.9124 0.987254 13.9657C0.840092 14.019 0.706436 14.0998 0.594676 14.203C0.482916 14.3063 0.395464 14.4298 0.33781 14.5658C0.280156 14.7018 0.253543 14.8473 0.259644 14.9932C0.265744 15.1392 0.304425 15.2824 0.373259 15.4138C0.442093 15.5453 0.539594 15.6622 0.659642 15.7572L12.8156 27.0002Z" fill="black"/>
</svg>
